<?xml version="1.0" encoding="iso-8859-1"?>
<!-- Uploaded to: SVG Repo, www.svgrepo.com, Generator: SVG Repo Mixer Tools -->
<svg fill="#000000" version="1.1" id="Layer_1" xmlns="http://www.w3.org/2000/svg" xmlns:xlink="http://www.w3.org/1999/xlink" 
	 viewBox="0 0 496 496" xml:space="preserve">
<g>
	<g>
		<g>
			<path d="M320,0v96h16v328c0,39.704,32.296,72,72,72c39.704,0,72-32.296,72-72V96h16V0H320z M464,424c0,30.872-25.128,56-56,56
				s-56-25.128-56-56V144h112V424z M464,128H352V96h112V128z M480,80H336V16h16v48h16V16h16v48h16V16h16v48h16V16h16v48h16V16h16V80
				z"/>
			<rect x="432" y="160" width="16" height="16"/>
			<rect x="432" y="192" width="16" height="200"/>
			<path d="M128,96h16v123.92l-48-65.456L18.584,260.032C6.432,276.616,0,296.24,0,316.808V320c0,52.936,43.064,96,96,96
				c17.496,0,33.856-4.776,48-12.992V424c0,39.704,32.296,72,72,72c39.704,0,72-32.296,72-72V96h16V0H128V96z M96,400
				c-44.112,0-80-35.888-80-80v-3.192c0-17.136,5.36-33.496,15.488-47.304L96,181.528l64.504,87.968
				C170.64,283.312,176,299.672,176,316.808V320C176,364.112,140.112,400,96,400z M272,424c0,30.872-25.128,56-56,56
				s-56-25.128-56-56v-32.648c19.584-17.592,32-43.016,32-71.352v-3.192c0-20.56-6.432-40.192-18.584-56.776L160,241.744V144h112
				V424z M272,128H160V96h112V128z M144,16h16v48h16V16h16v48h16V16h16v48h16V16h16v48h16V16h16v64H144V16z"/>
			<rect x="240" y="160" width="16" height="16"/>
			<rect x="240" y="192" width="16" height="200"/>
			<path d="M96,264c-30.872,0-56,25.128-56,56s25.128,56,56,56s56-25.128,56-56S126.872,264,96,264z M96,360
				c-22.056,0-40-17.944-40-40c0-22.056,17.944-40,40-40c22.056,0,40,17.944,40,40C136,342.056,118.056,360,96,360z"/>
			<path d="M72,320c0,13.232,10.768,24,24,24v-16c-4.416,0-8-3.584-8-8c0-4.416,3.584-8,8-8v-16C82.768,296,72,306.768,72,320z"/>
		</g>
	</g>
</g>
</svg>